Coordinates
version=1
nRows=16
nColumns=42
inDegrees=yes

Units are S.I. units (second, meters, Newtons, ...)
If the header above contains a line with 'inDegrees', this indicates whether rotational values are in degrees (yes) or radians (no).

endheader
time	pelvis_tilt	pelvis_list	pelvis_rotation	pelvis_tx	pelvis_ty	pelvis_tz	hip_flexion_r	hip_adduction_r	hip_rotation_r	knee_angle_r	knee_adduction_r	knee_angle_r_beta	ankle_angle_r	subtalar_angle_r	mtp_angle_r	hip_flexion_l	hip_adduction_l	hip_rotation_l	knee_angle_l	knee_adduction_l	knee_angle_l_beta	ankle_angle_l	subtalar_angle_l	mtp_angle_l	lumbar_extension	lumbar_bending	lumbar_rotation	arm_flex_r	arm_add_r	arm_rot_r	elbow_flex_r	pro_sup_r	wrist_flex_r	wrist_dev_r	arm_flex_l	arm_add_l	arm_rot_l	elbow_flex_l	pro_sup_l	wrist_flex_l	wrist_dev_l
      2.18000000	     22.51141893	      1.43568432	      4.46370177	      0.44365621	      0.95100066	     -0.35096525	     -8.70188200	      3.62012990	    -31.75445191	     25.83566460	    -15.74843111	      0.45091741	     16.12262189	     35.37274106	     -7.50348296	    -21.00883663	      1.96584331	      2.94156934	     50.72658222	     11.36143491	      0.88534588	      5.91106235	    -19.22289900	     -7.50348296	    -37.62864896	     -3.61551804	      0.35002317	      7.49321016	     -7.95385984	    -37.91368970	     25.38999493	     90.00000001	      0.00000000	      0.00000000	      1.68515251	    -21.22150855	      8.03203314	     71.89452760	     90.00000001	      0.00000000	      0.00000000
      2.19000000	     22.29638723	      1.43293209	      4.62953252	      0.44805473	      0.95102461	     -0.35209001	     -8.83669730	      3.67023557	    -31.47950466	     25.78212986	    -15.66132514	      0.44998305	     16.38638842	     35.04266797	     -7.50342804	    -19.32538887	      1.44299818	      2.48428011	     52.30544936	     11.13503450	      0.91290231	      6.69852145	    -19.28136581	     -7.50342804	    -37.51556095	     -3.59803178	      0.35564179	      8.11067826	     -8.00267905	    -37.44026605	     25.88848168	     90.00000001	      0.00000000	      0.00000000	      1.84987490	    -21.21741160	      8.07145571	     72.10590164	     90.00000001	      0.00000000	      0.00000000
      2.20000000	     22.02996220	      1.39749677	      4.74747838	      0.45245299	      0.95094417	     -0.35319822	     -8.88852828	      3.75798004	    -31.16873191	     25.75765748	    -15.63158668	      0.44955593	     16.68463746	     34.63044199	     -7.50336509	    -17.56584003	      0.91970022	      1.90748449	     53.60614514	     10.75793056	      0.93560373	      7.65596478	    -19.31632028	     -7.50336509	    -37.32050004	     -3.58709970	      0.40471258	      8.70920474	     -8.07615189	    -36.83678399	     26.46123729	     90.00000001	      0.00000000	      0.00000000	      1.97672929	    -21.19271109	      8.14120275	     72.30432655	     90.00000001	      0.00000000	      0.00000000
      2.21000000	     21.83164420	      1.43134344	      4.87586492	      0.45672803	      0.95098374	     -0.35442751	     -9.04312679	      3.75138357	    -30.80046212	     25.72174387	    -15.51211523	      0.44892912	     16.93702893	     34.11089903	     -7.50330001	    -15.88864256	      0.51401854	      1.48622876	     54.53003756	     10.32526012	      0.95172870	      8.50627982	    -19.34022819	     -7.50330001	    -37.24374339	     -3.59307894	      0.45811581	      9.32706047	     -8.12709986	    -36.20575753	     27.07361773	     90.00000001	      0.00000000	      0.00000000	      2.19062829	    -21.17232676	      8.20026347	     72.45202794	     90.00000001	      0.00000000	      0.00000000
      2.22000000	     21.67689561	      1.45622588	      4.93716927	      0.46098035	      0.95106290	     -0.35564943	     -9.23425914	      3.76504900	    -30.38156426	     25.71365806	    -15.44480399	      0.44878800	     17.25088707	     33.47307294	     -7.50256905	    -14.27904411	      0.15473264	      1.06956019	     55.09305608	      9.83557367	      0.96155522	      9.32790113	    -19.36923368	     -7.50256905	    -37.22838538	     -3.63697382	      0.63042433	      7.98499498	     -9.08489622	    -26.41190368	     30.30698493	     90.00000001	      0.00000000	      0.00000000	      2.50190074	    -21.27187912	      8.80970387	     72.65130151	     90.00000001	      0.00000000	      0.00000000
      2.23000000	     21.51743111	      1.51613124	      5.02027565	      0.46518515	      0.95121825	     -0.35694968	     -9.44845660	      3.70776902	    -30.09716669	     25.60749875	    -15.33955224	      0.44693517	     17.46192111	     33.10841879	     -7.50252265	    -12.67741292	     -0.12083879	      0.83266124	     55.29533396	      9.34347957	      0.96508564	     10.02711185	    -19.37743482	     -7.50252265	    -37.19432504	     -3.69599059	      0.65314673	      8.80642591	     -9.17166740	    -26.17469912	     30.68422187	     90.00000001	      0.00000000	      0.00000000	      2.66231491	    -21.20359484	      8.75586696	     72.70002155	     90.00000001	      0.00000000	      0.00000000
      2.24000000	     21.35767544	      1.57499949	      5.04675742	      0.46936277	      0.95138397	     -0.35825481	     -9.64611922	      3.64129181	    -29.79580280	     25.53762449	    -15.26761902	      0.44571563	     17.71873443	     32.73256636	     -7.50247151	    -11.10503010	     -0.33689579	      0.64183050	     55.16634848	      8.84229938	      0.96283442	     10.64467472	    -19.38266043	     -7.50247151	    -37.17425286	     -3.77581104	      0.74311504	      9.57940998	     -9.24600560	    -25.86387115	     31.16682230	     90.00000001	      0.00000000	      0.00000000	      2.85193689	    -21.11140560	      8.75209504	     72.75664500	     90.00000001	      0.00000000	      0.00000000
      2.25000000	     21.24041511	      1.66759730	      5.06352798	      0.47352258	      0.95163852	     -0.35964036	     -9.90725999	      3.53143940	    -29.50936683	     25.42980768	    -15.18476644	      0.44383387	     17.98768191	     32.38933320	     -7.50241689	     -9.62224243	     -0.47286931	      0.55646572	     54.69130277	      8.35152496	      0.95454331	     11.11046911	    -19.37631130	     -7.50241689	    -37.20489198	     -3.88934150	      0.81072982	     10.32014040	     -9.32908241	    -25.45832711	     31.74802382	     90.00000001	      0.00000000	      0.00000000	      3.05434110	    -21.03263749	      8.79741078	     72.78848339	     90.00000001	      0.00000000	      0.00000000
      2.26000000	     21.14735234	      1.72581296	      5.08594702	      0.47764876	      0.95192438	     -0.36103300	    -10.18010173	      3.45340518	    -29.31142750	     25.32567957	    -15.13025035	      0.44201649	     18.05109976	     32.01796508	     -7.50239144	     -8.19118058	     -0.62867186	      0.59855656	     53.95779004	      7.91541433	      0.94174109	     11.26411508	    -19.38221054	     -7.50239144	    -37.26302140	     -3.95489655	      0.93559527	     11.12246045	     -9.41713801	    -25.25391407	     32.20453771	     90.00000001	      0.00000000	      0.00000000	      3.29433598	    -20.89483574	      8.84362872	     72.86782578	     90.00000001	      0.00000000	      0.00000000
      2.27000000	     21.03376447	      1.76413190	      5.07282951	      0.48180944	      0.95217381	     -0.36246956	    -10.45132797	      3.38221579	    -29.10674876	     25.17833537	    -15.06169531	      0.43944485	     18.15857671	     31.66586704	     -7.50236690	     -6.76866892	     -0.73758260	      0.65337448	     52.99916992	      7.41769745	      0.92501002	     11.42591726	    -19.38553138	     -7.50236690	    -37.28704109	     -4.02295549	      1.06863391	     11.94353575	     -9.47220015	    -25.03269723	     32.68479166	     90.00000001	      0.00000000	      0.00000000	      3.48634583	    -20.79988937	      8.88978548	     72.91917495	     90.00000001	      0.00000000	      0.00000000
      2.28000000	     21.09763955	      2.00508912	      4.98394609	      0.48619403	      0.95274385	     -0.36401441	    -11.02461365	      3.09381753	    -28.73259900	     24.92215117	    -14.92956064	      0.43497359	     18.64592003	     31.57889203	     -7.50231254	     -5.76052844	     -0.51470009	      0.83134074	     51.47459164	      6.85541163	      0.89840111	     11.58063521	    -19.35523960	     -7.50231254	    -37.49082102	     -4.30413704	      1.06169738	     12.59548662	     -9.50095403	    -24.30964628	     33.51744142	     90.00000001	      0.00000000	      0.00000000	      3.57129849	    -20.79353669	      9.05015562	     72.81777769	     90.00000001	      0.00000000	      0.00000000
      2.29000000	     20.96650473	      2.00069112	      4.97811572	      0.49046814	      0.95291970	     -0.36552369	    -11.27457143	      3.09182624	    -28.57556338	     24.73404091	    -14.94511092	      0.43169045	     18.74161213	     31.26446512	     -7.50228510	     -4.41690269	     -0.62187282	      0.88208096	     50.11048823	      6.27471713	      0.87459301	     11.62365035	    -19.33721952	     -7.50228510	    -37.47840654	     -4.31710384	      1.21035640	     13.36446656	     -9.55939394	    -23.99116848	     34.03369567	     90.00000001	      0.00000000	      0.00000000	      3.70663616	    -20.65774624	      9.13246700	     72.86682087	     90.00000001	      0.00000000	      0.00000000
      2.30000000	     21.06492866	      2.20695081	      4.86222417	      0.49496804	      0.95351295	     -0.36713541	    -11.89867115	      2.80797744	    -28.32211383	     24.41598561	    -14.81609270	      0.42613934	     19.01672757	     31.20061195	     -7.50224451	     -3.56860775	     -0.42097925	      1.00592324	     48.21069082	      5.68561466	      0.84143529	     11.45983072	    -19.32342502	     -7.50224451	    -37.70745860	     -4.55915975	      1.24079510	     14.02413915	     -9.59960947	    -23.31839556	     34.74540499	     90.00000001	      0.00000000	      0.00000000	      3.76409215	    -20.65926193	      9.24985368	     72.79949166	     90.00000001	      0.00000000	      0.00000000
      2.31000000	     20.95317381	      2.08041753	      4.88027502	      0.49940631	      0.95353612	     -0.36872157	    -12.17352968	      2.87744745	    -28.24685892	     24.28347860	    -14.70906514	      0.42382666	     19.08959451	     30.90339006	     -7.50222207	     -2.28452984	     -0.66404905	      0.96592000	     46.75633948	      5.03056491	      0.81605207	     11.48092508	    -19.32838369	     -7.50222207	    -37.63324711	     -4.43451209	      1.43910235	     14.85027121	     -9.64295284	    -23.03559575	     35.23092951	     90.00000001	      0.00000000	      0.00000000	      3.91374468	    -20.53622825	      9.31073523	     72.86715606	     90.00000001	      0.00000000	      0.00000000
      2.32000000	     21.26674988	      2.35852272	      4.71475078	      0.50429232	      0.95429048	     -0.37046743	    -13.06735270	      2.47936087	    -28.36341975	     23.87079619	    -14.69766134	      0.41662399	     19.48814738	     31.91401829	     -7.50182586	     -1.92218704	     -0.32121467	      0.88321698	     44.36299423	      4.17850496	      0.77428032	     10.94290465	    -19.27454376	     -7.50182586	    -38.05986233	     -4.75307067	      1.46331561	     14.18011163	    -10.90740334	    -15.44054463	     37.84560316	     90.00000001	      0.00000000	      0.00000000	      3.82192409	    -20.59275414	      9.66547833	     72.86189112	     90.00000001	      0.00000000	      0.00000000
      2.33000000	     21.31265560	      2.42646826	      4.63319221	      0.50911824	      0.95457986	     -0.37220236	    -13.63008142	      2.34205821	    -28.16255571	     23.57863541	    -14.58652100	      0.41152482	     19.65807792	     31.71617397	     -7.50179092	     -1.13151354	     -0.26671657	      0.68927478	     42.29372552	      3.37197730	      0.73816476	     10.71221694	    -19.23266271	     -7.50179092	    -38.14719847	     -4.85442250	      1.54590972	     14.93783340	    -10.85869439	    -15.25082335	     38.29751635	     90.00000001	      0.00000000	      0.00000000	      3.79773753	    -20.52890629	      9.69282751	     72.83696491	     90.00000001	      0.00000000	      0.00000000
